HIERARCHY
ROOT joint_Root
{
	OFFSET 0.0 0.0 0.0
	CHANNELS 6 Xposition Yposition Zposition Zrotation Xrotation Yrotation 
	JOINT Hips
	{
		OFFSET 4.5925 91.4895 -427.239
		CHANNELS 6 Xposition Yposition Zposition Zrotation Xrotation Yrotation 
		JOINT Spine
		{
			OFFSET 15.7357 0.0 0.0
			CHANNELS 6 Xposition Yposition Zposition Zrotation Xrotation Yrotation 
			JOINT Chest
			{
				OFFSET 8.98455 -0.406207 0.0
				CHANNELS 6 Xposition Yposition Zposition Zrotation Xrotation Yrotation 
				JOINT Neck
				{
					OFFSET 16.3773 0.0 0.0
					CHANNELS 6 Xposition Yposition Zposition Zrotation Xrotation Yrotation 
					JOINT Head
					{
						OFFSET 6.45672 0.0 0.0
						CHANNELS 6 Xposition Yposition Zposition Zrotation Xrotation Yrotation 
						End Site
						{
							OFFSET 0.0 0.0 0.0
						}
					}
				}
				JOINT Shoulder_L
				{
					OFFSET 12.9942 -0.242716 4.98039
					CHANNELS 6 Xposition Yposition Zposition Zrotation Xrotation Yrotation 
					JOINT UpperArm_L
					{
						OFFSET 5.34809 0.0 0.0
						CHANNELS 6 Xposition Yposition Zposition Zrotation Xrotation Yrotation 
						JOINT LowerArm_L
						{
							OFFSET 24.3286 1.87007e-05 0.0
							CHANNELS 6 Xposition Yposition Zposition Zrotation Xrotation Yrotation 
							JOINT Hand_L
							{
								OFFSET 22.2916 0.0 0.0
								CHANNELS 6 Xposition Yposition Zposition Zrotation Xrotation Yrotation 
								End Site
								{
									OFFSET 0.0 0.0 0.0
								}
							}
						}
					}
				}
				JOINT Shoulder_R
				{
					OFFSET 12.9945 -0.242716 -4.98039
					CHANNELS 6 Xposition Yposition Zposition Zrotation Xrotation Yrotation 
					JOINT UpperArm_R
					{
						OFFSET -5.34813 0.0 0.0
						CHANNELS 6 Xposition Yposition Zposition Zrotation Xrotation Yrotation 
						JOINT LowerArm_R
						{
							OFFSET -24.3289 0.000322201 0.0
							CHANNELS 6 Xposition Yposition Zposition Zrotation Xrotation Yrotation 
							JOINT Hand_R
							{
								OFFSET -22.2915 -0.000108084 0.0
								CHANNELS 6 Xposition Yposition Zposition Zrotation Xrotation Yrotation 
								End Site
								{
									OFFSET 0.0 0.0 0.0
								}
							}
						}
					}
				}
			}
		}
		JOINT UpperLeg_L
		{
			OFFSET -2.19248 -6.46944 0.0
			CHANNELS 6 Xposition Yposition Zposition Zrotation Xrotation Yrotation 
			JOINT LowerLeg_L
			{
				OFFSET 39.0811 0.0 -1.23785e-05
				CHANNELS 6 Xposition Yposition Zposition Zrotation Xrotation Yrotation 
				JOINT Foot_L
				{
					OFFSET 40.9854 0.0 -1.26872e-05
					CHANNELS 6 Xposition Yposition Zposition Zrotation Xrotation Yrotation 
					JOINT Toes_L
					{
						OFFSET 11.7543 0.0 0.0
						CHANNELS 6 Xposition Yposition Zposition Zrotation Xrotation Yrotation 
						End Site
						{
							OFFSET 0.0 0.0 0.0
						}
					}
				}
			}
		}
		JOINT UpperLeg_R
		{
			OFFSET -2.19251 6.46944 0.0
			CHANNELS 6 Xposition Yposition Zposition Zrotation Xrotation Yrotation 
			JOINT LowerLeg_R
			{
				OFFSET -39.0811 -0.00228153 -0.0401928
				CHANNELS 6 Xposition Yposition Zposition Zrotation Xrotation Yrotation 
				JOINT Foot_R
				{
					OFFSET -40.9854 0.0 0.0
					CHANNELS 6 Xposition Yposition Zposition Zrotation Xrotation Yrotation 
					JOINT Toes_R
					{
						OFFSET -11.7543 0.0 0.0
						CHANNELS 6 Xposition Yposition Zposition Zrotation Xrotation Yrotation 
						End Site
						{
							OFFSET 0.0 0.0 0.0
						}
					}
				}
			}
		}
	}
}
MOTION
Frames:	8
Frame Time:	0.0333333
0.000000 0.000000 0.000000 0.000000 0.000000 -0.000000 -0.196669 81.108000 0.929980 87.553600 -2.347410 12.415300 15.735700 0.000005 -0.000001 88.179500 79.754900 -88.038500 8.984550 -0.406207 -0.000000 12.715100 -0.638543 0.353199 16.377300 -0.000001 -0.000001 -3.756650 -3.221060 0.753016 6.456720 -0.000001 -0.000000 -8.163370 -3.279980 2.949960 12.994200 -0.242716 4.980390 -90.777500 2.486140 -72.625900 5.348090 -0.000007 -0.000001 -66.785400 6.919770 -19.812200 24.328600 0.000019 0.000005 5.278410 12.976600 -22.364100 22.291600 -0.000001 0.000005 11.167400 5.128060 4.464300 12.994500 -0.242716 -4.980390 88.580900 7.524590 -79.287000 -5.348130 -0.000001 -0.000004 -67.529200 3.016800 -18.675700 -24.328900 0.000322 -0.000009 -5.051300 -14.721900 -19.177900 -22.291500 -0.000108 -0.000004 14.335800 5.300720 0.065645 -2.192480 -6.469440 -0.000000 -174.307000 -6.377110 -14.520200 39.081100 -0.000007 -0.000012 -0.691516 0.316684 65.395800 40.985400 -0.000006 -0.000013 -1.024540 -0.640206 -88.494000 11.754300 -0.000000 0.000003 -0.000729 -0.005448 -16.773400 -2.192510 6.469440 -0.000001 178.593000 10.206400 165.795000 -39.081100 -0.002282 -0.040193 0.091093 -0.041308 64.835700 -40.985400 0.000008 0.000006 6.382190 1.966940 -87.282100 -11.754300 -0.000006 -0.000006 -0.802627 -0.985781 -17.265400
0.000000 0.000000 0.000000 0.000000 0.000000 -0.000000 -0.094137 83.193900 1.794050 88.174800 -2.088180 11.549600 15.735700 0.000005 -0.000001 87.818700 81.207600 -87.875100 8.984550 -0.406207 -0.000000 9.806130 -0.666227 -0.055449 16.377300 -0.000001 -0.000001 -2.503550 -2.897920 0.904183 6.456720 -0.000001 -0.000000 -7.001940 -2.935860 3.199650 12.994200 -0.242716 4.980390 -90.406900 1.228570 -71.668600 5.348090 -0.000007 -0.000001 -60.932100 -2.935360 -21.284400 24.328600 0.000019 0.000005 5.440240 13.155000 -22.707300 22.291600 -0.000001 0.000005 13.012900 5.105010 4.993280 12.994500 -0.242716 -4.980390 88.639200 6.539570 -78.216900 -5.348130 -0.000001 -0.000004 -62.809100 -7.652110 -20.109800 -24.328900 0.000322 -0.000009 -4.910190 -15.143500 -18.200000 -22.291500 -0.000108 -0.000004 14.051400 5.280900 0.603989 -2.192480 -6.469440 -0.000000 -175.193000 -6.268250 -11.781800 39.081100 -0.000007 -0.000012 -0.595979 0.354754 59.238300 40.985400 -0.000006 -0.000013 -0.992525 -0.753035 -85.993000 11.754300 -0.000000 0.000003 -0.000664 -0.005041 -16.759600 -2.192510 6.469440 -0.000001 178.022000 9.870550 168.327000 -39.081100 -0.002282 -0.040193 0.078520 -0.045038 59.120700 -40.985400 0.000008 0.000006 5.919120 2.010190 -84.747900 -11.754300 -0.000006 -0.000006 -0.791694 -0.969247 -17.509500
0.000000 0.000000 0.000000 0.000000 0.000000 -0.000000 0.023456 85.746800 2.804520 88.792100 -1.697170 10.763000 15.735700 0.000005 -0.000001 87.160000 82.865400 -87.426700 8.984550 -0.406207 -0.000000 6.484420 -0.701883 -0.492997 16.377300 -0.000001 -0.000001 -0.185862 -2.982980 0.994792 6.456720 -0.000001 -0.000000 -5.422770 -3.167100 3.672550 12.994200 -0.242716 4.980390 -89.675600 -0.949095 -71.141200 5.348090 -0.000007 -0.000001 -55.309700 -16.813500 -25.432100 24.328600 0.000019 0.000005 4.461210 11.532400 -21.311900 22.291600 -0.000001 0.000005 13.460100 5.068110 5.832070 12.994500 -0.242716 -4.980390 88.927600 4.700580 -77.130400 -5.348130 -0.000001 -0.000004 -57.005600 -19.406000 -24.100300 -24.328900 0.000322 -0.000009 -5.146040 -16.496100 -17.594700 -22.291500 -0.000108 -0.000004 15.746500 5.272540 0.828336 -2.192480 -6.469440 -0.000000 -175.922000 -6.526490 -7.778050 39.081100 -0.000007 -0.000012 -0.476365 0.387991 50.838900 40.985400 -0.000006 -0.000013 -0.696961 -0.361233 -82.413500 11.754300 -0.000000 0.000003 -0.000538 -0.004231 -16.731800 -2.192510 6.469440 -0.000001 177.166000 10.279300 172.038000 -39.081100 -0.002282 -0.040193 0.060708 -0.045901 51.383500 -40.985400 0.000008 0.000006 5.573840 2.850710 -81.043300 -11.754300 -0.000006 -0.000006 -0.867969 -1.056350 -17.945000
0.000000 0.000000 0.000000 0.000000 0.000000 -0.000000 0.088395 88.015700 3.687580 89.202800 -1.466660 8.965490 15.735700 0.000005 -0.000001 85.216500 84.881600 -85.591900 8.984550 -0.406207 -0.000000 2.432800 -0.835524 -0.732313 16.377300 -0.000001 -0.000001 2.319110 -3.412270 1.025220 6.456720 -0.000001 -0.000000 -3.690970 -3.675770 4.088590 12.994200 -0.242716 4.980390 -88.790000 -3.453560 -70.678900 5.348090 -0.000007 -0.000001 -50.260900 -30.915700 -32.499900 24.328600 0.000019 0.000005 2.719840 7.451550 -20.118800 22.291600 -0.000001 0.000005 14.806800 5.062240 5.969690 12.994500 -0.242716 -4.980390 89.435700 2.265040 -76.001600 -5.348130 -0.000001 -0.000004 -51.922000 -30.663500 -32.300600 -24.328900 0.000322 -0.000009 -6.216670 -20.154200 -17.540300 -22.291500 -0.000108 -0.000004 16.149600 5.275500 0.748857 -2.192480 -6.469440 -0.000000 -176.293000 -7.556520 -4.710740 39.081100 -0.000007 -0.000012 -0.335432 0.370346 42.168700 40.985400 -0.000006 -0.000013 -0.286140 0.718703 -78.590300 11.754300 -0.000000 0.000003 -0.000356 -0.002998 -16.688600 -2.192510 6.469440 -0.000001 176.644000 11.222200 174.657000 -39.081100 -0.002282 -0.040193 0.043830 -0.042675 43.545400 -40.985400 0.000008 0.000006 5.462980 4.173510 -77.061200 -11.754300 -0.000006 -0.000006 -0.900815 -1.086310 -18.556400
0.000000 0.000000 0.000000 0.000000 0.000000 -0.000000 0.177510 89.592200 4.217140 89.327100 -1.419710 6.418980 15.735700 0.000005 -0.000001 80.258300 86.738000 -80.609400 8.984550 -0.406207 -0.000000 -1.339350 -1.075780 -0.714554 16.377300 -0.000001 -0.000001 3.666930 -3.768980 1.228960 6.456720 -0.000001 -0.000000 -2.562600 -4.146010 4.313130 12.994200 -0.242716 4.980390 -87.674000 -6.607090 -70.556500 5.348090 -0.000007 -0.000001 -43.834200 -41.668700 -39.062900 24.328600 0.000019 0.000005 2.424230 5.798690 -22.754700 22.291600 -0.000001 0.000005 15.081100 5.137480 4.236680 12.994500 -0.242716 -4.980390 90.356600 -1.422220 -75.916700 -5.348130 -0.000001 -0.000004 -48.012600 -40.046000 -41.845300 -24.328900 0.000322 -0.000009 -8.371080 -21.927100 -21.501400 -22.291500 -0.000108 -0.000004 15.811800 5.326730 -0.689905 -2.192480 -6.469440 -0.000000 -176.651000 -8.865120 -3.551100 39.081100 -0.000007 -0.000012 -0.153032 0.215883 35.331900 40.985400 -0.000006 -0.000013 1.198800 1.658630 -75.518100 11.754300 -0.000000 0.000003 -0.638812 -0.848727 -16.107000 -2.192510 6.469440 -0.000001 176.648000 12.187100 175.587000 -39.081100 -0.002282 -0.040193 0.030959 -0.036614 37.082400 -40.985400 0.000008 0.000006 5.278020 5.550080 -73.855600 -11.754300 -0.000006 -0.000006 -0.881719 -1.059140 -18.861800
0.000000 0.000000 0.000000 0.000000 0.000000 -0.000000 0.303090 90.505700 4.628890 89.244700 -1.612820 4.265280 15.735700 0.000005 -0.000001 72.493800 88.103400 -72.689700 8.984550 -0.406207 -0.000000 -4.150770 -1.119870 -0.432490 16.377300 -0.000001 -0.000001 3.793600 -3.935780 1.540310 6.456720 -0.000001 -0.000000 -2.049270 -4.411980 4.314880 12.994200 -0.242716 4.980390 -86.211900 -10.408200 -69.874900 5.348090 -0.000007 -0.000001 -33.707600 -48.485800 -41.473100 24.328600 0.000019 0.000005 1.020550 1.845130 -29.029900 22.291600 -0.000001 0.000005 15.417700 5.214640 2.359290 12.994500 -0.242716 -4.980390 91.466000 -5.851280 -75.910300 -5.348130 -0.000001 -0.000004 -41.833000 -47.405200 -48.367900 -24.328900 0.000322 -0.000009 -12.090100 -20.603700 -31.329600 -22.291500 -0.000108 -0.000004 17.744200 5.408910 -3.179490 -2.192480 -6.469440 -0.000000 -176.709000 -9.686220 -2.986970 39.081100 -0.000007 -0.000012 -0.167095 0.284292 30.445500 40.985400 -0.000006 -0.000013 0.680270 2.584050 -73.309700 11.754300 -0.000000 0.000003 -0.258016 -0.341843 -16.425700 -2.192510 6.469440 -0.000001 176.755000 13.329400 176.136000 -39.081100 -0.002282 -0.040193 0.023051 -0.031335 32.227100 -40.985400 0.000008 0.000006 5.221660 7.213140 -72.079200 -11.754300 -0.000006 -0.000006 -0.620591 -0.755704 -18.745200
0.000000 0.000000 0.000000 0.000000 0.000000 -0.000000 0.459284 90.955100 4.889240 89.140000 -1.778650 2.853920 15.735700 0.000005 -0.000001 72.645100 88.928900 -72.672300 8.984550 -0.406207 -0.000000 -5.721710 -0.634934 -0.086186 16.377300 -0.000001 -0.000001 3.182360 -3.992890 1.784810 6.456720 -0.000001 -0.000000 -2.293970 -5.046490 4.333770 12.994200 -0.242716 4.980390 -84.527200 -13.793700 -68.111400 5.348090 -0.000007 -0.000001 -27.555600 -56.018800 -45.568400 24.328600 0.000019 0.000005 0.915631 1.103190 -39.597500 22.291600 -0.000001 0.000005 19.163500 5.255570 1.302920 12.994500 -0.242716 -4.980390 92.822300 -10.149400 -74.377300 -5.348130 -0.000001 -0.000004 -34.892600 -55.349000 -52.337600 -24.328900 0.000322 -0.000009 -14.629700 -14.832500 -45.586100 -22.291500 -0.000108 -0.000004 23.398200 5.512690 -6.908490 -2.192480 -6.469440 -0.000000 -176.951000 -9.483500 -2.870160 39.081100 -0.000007 -0.000012 -0.176664 0.336518 27.698700 40.985400 -0.000006 -0.000013 0.154303 2.301440 -72.089000 11.754300 -0.000000 0.000003 -0.000185 -0.001737 -16.643200 -2.192510 6.469440 -0.000001 176.682000 14.788600 176.640000 -39.081100 -0.002282 -0.040193 0.016646 -0.024117 28.952100 -40.985400 0.000008 0.000006 5.210350 9.115700 -71.423900 -11.754300 -0.000006 -0.000006 -0.301840 -0.385186 -18.311900
0.000000 0.000000 0.000000 0.000000 0.000000 -0.000000 0.576417 91.149900 5.017520 89.038100 -1.688180 2.283470 15.735700 0.000005 -0.000001 85.674900 89.318300 -85.507900 8.984550 -0.406207 -0.000000 -6.406230 -0.123295 0.327489 16.377300 -0.000001 -0.000001 2.690660 -3.854410 1.752830 6.456720 -0.000001 -0.000000 -3.133750 -5.720700 4.365440 12.994200 -0.242716 4.980390 -82.485700 -16.030200 -64.470600 5.348090 -0.000007 -0.000001 -34.286000 -63.796000 -59.819400 24.328600 0.000019 0.000005 3.670510 2.756690 -53.062200 22.291600 -0.000001 0.000005 23.453900 5.302860 0.012652 12.994500 -0.242716 -4.980390 94.902700 -14.035700 -70.528400 -5.348130 -0.000001 -0.000004 -36.898400 -63.338600 -63.126200 -24.328900 0.000322 -0.000009 -12.112200 -7.430700 -58.950000 -22.291500 -0.000108 -0.000004 28.061200 5.602330 -11.355600 -2.192480 -6.469440 -0.000000 -177.173000 -8.663590 -2.804980 39.081100 -0.000007 -0.000012 -0.171865 0.344598 26.507500 40.985400 -0.000006 -0.000013 0.048509 1.565310 -71.578300 11.754300 -0.000000 0.000003 -0.000201 -0.001856 -16.647600 -2.192510 6.469440 -0.000001 176.531000 16.305200 177.337000 -39.081100 -0.002282 -0.040193 0.013970 -0.020989 26.928200 -40.985400 0.000008 0.000006 5.373840 10.557000 -71.375300 -11.754300 -0.000006 -0.000006 -0.002720 -0.037392 -18.093700
